<svg width="16" height="16" viewBox="0 0 16 16" fill="none" xmlns="http://www.w3.org/2000/svg">
<g id="ph:arrow-up-fill">
<path id="Vector" d="M12.9623 7.19164C12.9244 7.28301 12.8604 7.36111 12.7782 7.41607C12.6959 7.47103 12.5993 7.50037 12.5004 7.50039H8.50039V13.5004C8.50039 13.633 8.44772 13.7602 8.35395 13.8539C8.26018 13.9477 8.133 14.0004 8.00039 14.0004C7.86779 14.0004 7.74061 13.9477 7.64684 13.8539C7.55307 13.7602 7.50039 13.633 7.50039 13.5004V7.50039H3.50039C3.40145 7.50047 3.3047 7.47119 3.2224 7.41625C3.14011 7.36132 3.07596 7.2832 3.03808 7.19179C3.00021 7.10038 2.9903 6.99978 3.00963 6.90274C3.02895 6.8057 3.07664 6.71657 3.14664 6.64664L7.64664 2.14664C7.69308 2.10016 7.74822 2.06328 7.80892 2.03811C7.86962 2.01295 7.93469 2 8.00039 2C8.0661 2 8.13117 2.01295 8.19186 2.03811C8.25256 2.06328 8.30771 2.10016 8.35414 2.14664L12.8541 6.64664C12.924 6.71661 12.9716 6.80573 12.9909 6.90274C13.0101 6.99975 13.0002 7.10029 12.9623 7.19164Z" fill="#BAD6F4"/>
</g>
</svg>
