<svg width="18" height="19" viewBox="0 0 18 19" fill="none" xmlns="http://www.w3.org/2000/svg">
<path d="M13.4996 6.24097C13.4546 6.23347 13.4021 6.23347 13.3571 6.24097C12.3221 6.20347 11.4971 5.35597 11.4971 4.30597C11.4971 3.23347 12.3596 2.37097 13.4321 2.37097C14.5046 2.37097 15.3671 3.24097 15.3671 4.30597C15.3596 5.35597 14.5346 6.20347 13.4996 6.24097Z" stroke="#0D345D" stroke-width="1.5" stroke-linecap="round" stroke-linejoin="round"/>
<path d="M12.7276 11.701C13.7551 11.8735 14.8876 11.6935 15.6826 11.161C16.7401 10.456 16.7401 9.30097 15.6826 8.59597C14.8801 8.06347 13.7326 7.88347 12.7051 8.06347" stroke="#0D345D" stroke-width="1.5" stroke-linecap="round" stroke-linejoin="round"/>
<path d="M4.47785 6.24097C4.52285 6.23347 4.57535 6.23347 4.62035 6.24097C5.65535 6.20347 6.48035 5.35597 6.48035 4.30597C6.48035 3.23347 5.61785 2.37097 4.54535 2.37097C3.47285 2.37097 2.61035 3.24097 2.61035 4.30597C2.61785 5.35597 3.44285 6.20347 4.47785 6.24097Z" stroke="#0D345D" stroke-width="1.5" stroke-linecap="round" stroke-linejoin="round"/>
<path d="M5.25008 11.701C4.22258 11.8735 3.09008 11.6935 2.29508 11.161C1.23758 10.456 1.23758 9.30097 2.29508 8.59597C3.09758 8.06347 4.24508 7.88347 5.27258 8.06347" stroke="#0D345D" stroke-width="1.5" stroke-linecap="round" stroke-linejoin="round"/>
<path d="M8.99957 11.8435C8.95457 11.836 8.90207 11.836 8.85707 11.8435C7.82207 11.806 6.99707 10.9585 6.99707 9.90851C6.99707 8.83601 7.85957 7.97351 8.93207 7.97351C10.0046 7.97351 10.8671 8.84351 10.8671 9.90851C10.8596 10.9585 10.0346 11.8135 8.99957 11.8435Z" stroke="#0D345D" stroke-width="1.5" stroke-linecap="round" stroke-linejoin="round"/>
<path d="M6.81656 14.206C5.75906 14.911 5.75906 16.066 6.81656 16.771C8.01656 17.5735 9.98156 17.5735 11.1816 16.771C12.2391 16.066 12.2391 14.911 11.1816 14.206C9.98906 13.411 8.01656 13.411 6.81656 14.206Z" stroke="#0D345D" stroke-width="1.5" stroke-linecap="round" stroke-linejoin="round"/>
</svg>
